<!DOCTYPE svg PUBLIC "-//W3C//DTD SVG 1.1//EN" "http://www.w3.org/Graphics/SVG/1.1/DTD/svg11.dtd">
<!-- Uploaded to: SVG Repo, www.svgrepo.com, Transformed by: SVG Repo Mixer Tools -->
<svg fill="#5f7b96" width="800px" height="800px" viewBox="0 0 24 24" id="mobile-phone" data-name="Flat Line" xmlns="http://www.w3.org/2000/svg" class="icon flat-line" stroke="#5f7b96">
<g id="SVGRepo_bgCarrier" stroke-width="0"/>
<g id="SVGRepo_tracerCarrier" stroke-linecap="round" stroke-linejoin="round"/>
<g id="SVGRepo_iconCarrier">
<path id="secondary" d="M17,3H14l-.5,2h-3L10,3H7A1,1,0,0,0,6,4V20a1,1,0,0,0,1,1H17a1,1,0,0,0,1-1V4A1,1,0,0,0,17,3Z" style="fill: #2ca9bc; stroke-width: 2;"/>
<path id="primary" d="M13,17H11M14,3H10l.5,2h3Zm4,17V4a1,1,0,0,0-1-1H7A1,1,0,0,0,6,4V20a1,1,0,0,0,1,1H17A1,1,0,0,0,18,20Z" style="fill: none; stroke: #000000; stroke-linecap: round; stroke-linejoin: round; stroke-width: 2;"/>
</g>
</svg>